<svg width="621" height="146" viewBox="0 0 621 146" fill="none" xmlns="http://www.w3.org/2000/svg">
<g clip-path="url(#clip0_6_3)">
<path d="M23.168 11.5041C23.296 11.0561 23.488 10.6934 23.744 10.4161C24 10.1174 24.2773 9.96806 24.576 9.96806C25.3013 9.96806 25.824 10.1067 26.144 10.3841C26.464 10.6614 26.624 11.1414 26.624 11.8241C26.624 12.0161 26.4747 12.5601 26.176 13.4561C25.5147 15.4827 24.7893 17.9894 24 20.9761C23.808 21.6587 23.648 22.2561 23.52 22.7681C23.4133 23.2801 23.3173 23.7067 23.232 24.0481C22.72 26.2454 22.272 27.8987 21.888 29.0081C21.76 29.3281 21.536 29.5841 21.216 29.7761C20.896 29.9467 20.5547 30.0321 20.192 30.0321C19.8293 30.0321 19.4667 29.9574 19.104 29.8081C18.7627 29.6374 18.5173 29.4454 18.368 29.2321C17.7067 27.9307 16.8853 26.1601 15.904 23.9201C14.944 21.6587 14.1973 19.6854 13.664 18.0001C12.3413 21.3494 11.1573 24.5814 10.112 27.6961C10.048 27.8881 9.97333 28.1014 9.888 28.3361C9.824 28.5494 9.74933 28.7734 9.664 29.0081C9.51467 29.3281 9.30133 29.5841 9.024 29.7761C8.74667 29.9467 8.43733 30.0321 8.096 30.0321C7.712 30.0321 7.33867 29.9574 6.976 29.8081C6.61333 29.6374 6.368 29.4454 6.24 29.2321C5.96267 28.7627 5.664 28.0374 5.344 27.0561C5.04533 26.0747 4.64 24.6987 4.128 22.9281L3.328 20.2081C2.77333 18.4374 2.29333 16.6241 1.888 14.7681C1.48267 12.9121 1.28 11.8027 1.28 11.4401C1.28 10.9921 1.504 10.6401 1.952 10.3841C2.4 10.1067 2.848 9.96806 3.296 9.96806C3.552 9.96806 3.81867 10.0534 4.096 10.2241C4.37333 10.3734 4.55467 10.6401 4.64 11.0241C5.38667 15.0134 6.48533 19.6427 7.936 24.9121C8.49067 23.5894 9.09867 21.9787 9.76 20.0801C10.4427 18.1814 11.0933 16.3361 11.712 14.5441L12.032 13.5841C12.1173 13.2641 12.3307 13.0187 12.672 12.8481C13.0347 12.6561 13.3973 12.5601 13.76 12.5601C14.2293 12.5601 14.6133 12.6774 14.912 12.9121C15.2107 13.1467 15.4027 13.4027 15.488 13.6801C15.5093 13.7654 15.936 15.0347 16.768 17.4881C17.6 19.9414 18.592 22.4161 19.744 24.9121C20.1707 23.6534 20.6827 21.6374 21.28 18.8641L21.76 16.7521C22.336 14.4907 22.8053 12.7414 23.168 11.5041ZM43.791 18.5441C43.7697 18.2027 43.759 17.6907 43.759 17.0081V15.7921C43.759 14.9814 43.7377 14.3734 43.695 13.9681C43.6523 13.6267 43.631 12.7414 43.631 11.3121C43.631 10.8001 43.7803 10.4054 44.079 10.1281C44.399 9.82939 44.8257 9.68006 45.359 9.68006C46.0417 9.68006 46.5003 9.82939 46.735 10.1281C46.9697 10.4267 47.087 10.9174 47.087 11.6001V12.8161L47.055 16.3361C47.0337 17.0187 47.023 18.0427 47.023 19.4081L47.055 22.0321C47.0763 22.4374 47.087 23.0027 47.087 23.7281C47.087 24.3041 47.1083 25.1254 47.151 26.1921C47.1937 27.1734 47.215 27.9094 47.215 28.4001C47.215 28.8054 47.0977 29.1787 46.863 29.5201C46.6497 29.8614 46.351 30.0321 45.967 30.0321C44.4737 30.0321 43.727 29.5307 43.727 28.5281C43.727 27.9734 43.7483 27.3547 43.791 26.6721C43.8337 26.1814 43.855 25.4347 43.855 24.4321C43.855 23.7281 43.8337 22.7147 43.791 21.3921C42.7883 21.4774 41.0603 21.5201 38.607 21.5201C37.071 21.5201 35.8763 21.5201 35.023 21.5201C34.1697 21.4987 33.551 21.4454 33.167 21.3601L33.135 25.0401C33.135 25.2747 33.1883 25.9041 33.295 26.9281C33.4017 27.6107 33.455 28.2081 33.455 28.7201C33.455 29.0401 33.263 29.3494 32.879 29.6481C32.5163 29.9254 32.175 30.0641 31.855 30.0641C31.087 30.0641 30.5643 29.8827 30.287 29.5201C30.0097 29.1361 29.871 28.5601 29.871 27.7921L29.839 25.2641C29.8177 24.9654 29.807 24.5494 29.807 24.0161C29.807 23.2267 29.7857 22.1494 29.743 20.7841C29.7003 19.5467 29.679 18.6507 29.679 18.0961C29.679 17.2641 29.7003 16.1014 29.743 14.6081C29.7857 13.2001 29.807 12.1547 29.807 11.4721C29.807 10.7894 29.9777 10.3307 30.319 10.0961C30.6603 9.86139 31.0443 9.74406 31.471 9.74406C32.6657 9.74406 33.263 10.1387 33.263 10.9281C33.263 12.3361 33.231 13.6801 33.167 14.9601C33.1243 16.5814 33.103 17.7654 33.103 18.5121C33.7217 18.6614 34.3723 18.7574 35.055 18.8001C35.7377 18.8427 36.6977 18.8641 37.935 18.8641C40.4523 18.8641 42.4043 18.7574 43.791 18.5441ZM64.9553 25.6481C65.3606 25.6481 65.6593 25.8081 65.8513 26.1281C66.0646 26.4267 66.1713 26.7574 66.1713 27.1201C66.1713 27.5681 66.0966 27.8881 65.9473 28.0801C65.8193 28.2507 65.5633 28.4321 65.1793 28.6241C64.2833 29.0507 63.1739 29.3921 61.8513 29.6481C60.5286 29.9041 59.1099 30.0321 57.5953 30.0321C55.6966 30.0321 54.2993 29.7121 53.4033 29.0721C52.5286 28.4321 51.9846 27.6641 51.7713 26.7681C51.5793 25.8507 51.4833 24.6561 51.4833 23.1841C51.4833 21.6054 51.5473 20.0587 51.6753 18.5441C51.8033 17.0081 52.0273 15.0561 52.3473 12.6881C52.4966 11.6641 52.9019 10.9281 53.5633 10.4801C54.2246 10.0107 54.9499 9.77606 55.7393 9.77606C56.4006 9.77606 57.4779 9.75473 58.9713 9.71206L61.7553 9.68006C62.9073 9.68006 63.7393 9.71206 64.2513 9.77606C64.8913 9.90406 65.3606 10.0534 65.6593 10.2241C65.9793 10.3734 66.1393 10.6401 66.1393 11.0241C66.1393 11.4507 65.9899 11.8667 65.6912 12.2721C65.4139 12.6774 64.9873 12.8801 64.4113 12.8801C63.7499 12.8801 62.8006 12.8374 61.5633 12.7521C60.3259 12.6667 59.3979 12.6241 58.7793 12.6241C58.2459 12.6241 57.7233 12.6561 57.2113 12.7201C56.6139 12.7627 56.1873 12.8374 55.9313 12.9441C55.6753 13.0507 55.5259 13.2321 55.4833 13.4881C55.1846 15.6854 55.0353 17.3067 55.0353 18.3521C55.5259 18.4161 56.0059 18.4481 56.4753 18.4481C57.0726 18.4481 57.7126 18.4161 58.3953 18.3521C59.0779 18.2881 59.5153 18.2454 59.7073 18.2241C60.8379 18.1174 61.8086 18.0641 62.6193 18.0641C63.0886 18.0641 63.4406 18.1494 63.6753 18.3201C63.9313 18.4907 64.0593 18.7254 64.0593 19.0241C64.0593 19.4934 63.9313 19.8561 63.6753 20.1121C63.4406 20.3681 63.0139 20.5601 62.3953 20.6881C61.6486 20.8374 60.7206 20.9547 59.6113 21.0401C58.5233 21.1254 57.4566 21.1681 56.4113 21.1681C56.0486 21.1681 55.5473 21.1467 54.9073 21.1041C54.8433 22.4054 54.8113 23.6107 54.8113 24.7201C54.8113 26.2347 55.8139 26.9921 57.8193 26.9921C58.8859 26.9921 59.7713 26.9174 60.4753 26.7681C61.1793 26.6187 61.9899 26.4054 62.9073 26.1281C63.7606 25.8081 64.4433 25.6481 64.9553 25.6481ZM80.2435 21.5201C82.0995 24.6774 83.8382 27.1841 85.4595 29.0401C85.6302 29.2107 85.7155 29.4027 85.7155 29.6161C85.7155 29.8934 85.5448 30.1281 85.2035 30.3201C84.8622 30.5334 84.4675 30.6401 84.0195 30.6401C83.3582 30.6401 82.6435 30.3627 81.8755 29.8081C81.3208 29.4241 80.8088 28.8587 80.3395 28.1121C79.8702 27.3441 79.3368 26.3627 78.7395 25.1681L78.1955 24.0801C77.6408 23.0774 77.3102 22.4907 77.2035 22.3201C76.7342 22.5121 76.1902 22.6507 75.5715 22.7361C74.9528 22.8214 74.1955 22.8961 73.2995 22.9601C73.3422 25.6907 73.3635 27.6001 73.3635 28.6881C73.3635 29.0934 73.2142 29.4241 72.9155 29.6801C72.6168 29.9147 72.2435 30.0321 71.7955 30.0321C71.2408 30.0321 70.8142 29.8081 70.5155 29.3601C70.2168 28.7627 70.0675 27.8347 70.0675 26.5761L70.0995 24.2401C70.0995 22.7894 70.1315 21.4134 70.1955 20.1121C70.2382 18.4054 70.2595 17.1467 70.2595 16.3361L70.2915 14.7041C70.2915 14.2134 70.2595 13.7121 70.1955 13.2001C69.8542 13.0934 69.5555 12.9334 69.2995 12.7201C69.0435 12.4854 68.9155 12.2294 68.9155 11.9521C68.9155 11.4187 69.1075 11.0134 69.4915 10.7361C69.8968 10.4374 70.3982 10.2454 70.9955 10.1601C72.7235 9.88273 74.4088 9.74406 76.0515 9.74406C78.8462 9.74406 81.1608 10.2667 82.9955 11.3121C84.8302 12.3574 85.7475 13.9467 85.7475 16.0801C85.7475 16.7414 85.5982 17.3814 85.2995 18.0001C85.0222 18.5974 84.6382 19.0987 84.1475 19.5041C82.8675 20.5067 81.5662 21.1787 80.2435 21.5201ZM82.3555 15.9841C82.3555 14.9601 81.8115 14.1281 80.7235 13.4881C79.6568 12.8267 78.1208 12.4961 76.1155 12.4961C75.2408 12.4961 74.3448 12.6027 73.4275 12.8161C73.4702 13.5841 73.4915 14.1281 73.4915 14.4481C73.4915 15.0881 73.4488 16.0054 73.3635 17.2001C73.3208 18.3947 73.2995 19.3547 73.2995 20.0801C74.7288 20.0801 76.0942 19.8881 77.3955 19.5041C78.3342 19.2267 79.1235 18.9601 79.7635 18.7041C80.4035 18.4481 80.9902 18.0961 81.5235 17.6481C82.0782 17.1787 82.3555 16.6241 82.3555 15.9841ZM103.77 27.9521C103.792 28.4001 103.738 28.7201 103.61 28.9121C103.482 29.0827 103.226 29.2641 102.842 29.4561C102.266 29.7334 101.584 29.9147 100.794 30.0001C100.026 30.0854 99.0343 30.1281 97.8183 30.1281H95.6423C93.7436 30.1281 92.3356 29.8081 91.4183 29.1681C90.5009 28.5067 89.9249 27.7174 89.6903 26.8001C89.4556 25.8827 89.3169 24.6987 89.2743 23.2481C89.2529 22.7574 89.2423 22.0321 89.2423 21.0721C89.2423 18.9814 89.4236 16.1867 89.7863 12.6881C89.8929 11.6641 90.2663 10.9281 90.9062 10.4801C91.5463 10.0107 92.2716 9.77606 93.0823 9.77606C93.7436 9.77606 94.8209 9.75473 96.3142 9.71206L99.1303 9.68006C100.282 9.68006 101.114 9.71206 101.626 9.77606C102.266 9.90406 102.746 10.0534 103.066 10.2241C103.386 10.3734 103.557 10.6401 103.578 11.0241C103.578 11.4507 103.44 11.8667 103.162 12.2721C102.885 12.6774 102.458 12.8801 101.882 12.8801C101.221 12.8801 100.272 12.8374 99.0343 12.7521C97.7969 12.6667 96.8583 12.6241 96.2183 12.6241C95.6423 12.6241 95.1196 12.6561 94.6503 12.7201C94.0529 12.7627 93.6263 12.8374 93.3703 12.9441C93.1143 13.0507 92.9756 13.2321 92.9543 13.4881C92.7196 15.8134 92.6236 17.4347 92.6663 18.3521C93.1569 18.4161 93.6476 18.4481 94.1383 18.4481C94.6289 18.4481 95.3009 18.4054 96.1543 18.3201C96.3676 18.2987 96.6343 18.2774 96.9543 18.2561C97.2743 18.2347 97.6369 18.2241 98.0423 18.2241C98.2769 18.2241 98.6503 18.2454 99.1623 18.2881L100.154 18.3201C101.136 18.3201 101.626 18.6721 101.626 19.3761C101.626 19.8027 101.509 20.1441 101.274 20.4001C101.04 20.6561 100.624 20.8481 100.026 20.9761C99.2156 21.1254 97.9036 21.2001 96.0903 21.2001H94.1383C93.7329 21.2001 93.2316 21.1787 92.6343 21.1361C92.6129 21.5201 92.6023 22.0747 92.6023 22.8001C92.6023 23.7387 92.6129 24.4001 92.6343 24.7841C92.6983 26.2774 93.7329 27.0241 95.7383 27.0241C96.4209 27.0241 97.1463 27.0454 97.9143 27.0881L99.0983 27.1201C99.6529 27.1201 100.112 27.0667 100.474 26.9601C100.837 26.8321 101.189 26.7254 101.53 26.6401C101.893 26.5334 102.224 26.4801 102.522 26.4801C102.928 26.4801 103.237 26.6401 103.45 26.9601C103.664 27.2587 103.77 27.5894 103.77 27.9521ZM112.352 11.3441C112.352 10.4267 113.024 9.96806 114.368 9.96806C114.944 9.96806 116.043 9.98939 117.664 10.0321C119.456 10.1174 120.811 10.1601 121.728 10.1601C122.475 10.1601 123.381 10.1174 124.448 10.0321C125.173 9.98939 125.632 9.96806 125.824 9.96806C126.997 10.0107 127.989 10.2241 128.8 10.6081C129.035 10.7147 129.227 10.8427 129.376 10.9921C129.525 11.1414 129.6 11.3867 129.6 11.7281C129.6 12.1974 129.451 12.6027 129.152 12.9441C128.853 13.2641 128.491 13.4241 128.064 13.4241C127.595 13.4241 126.912 13.3601 126.016 13.2321C125.227 13.0827 124.533 13.0081 123.936 13.0081C123.36 13.0081 122.923 13.0187 122.624 13.0401C122.56 13.7441 122.528 15.4294 122.528 18.0961C122.528 21.2747 122.624 24.4961 122.816 27.7601L122.88 28.6881C122.88 29.5627 122.379 30.0001 121.376 30.0001C120.587 30.0001 120.053 29.8187 119.776 29.4561C119.499 29.0721 119.36 28.4961 119.36 27.7281C119.36 26.2134 119.317 24.3254 119.232 22.0641C119.147 20.1867 119.104 18.8534 119.104 18.0641C119.104 17.5307 119.168 15.8987 119.296 13.1681L115.552 13.2001C114.357 13.2001 113.525 13.0934 113.056 12.8801C112.587 12.6454 112.352 12.1334 112.352 11.3441ZM141.586 9.64806C142.951 9.64806 144.124 9.81873 145.106 10.1601C146.108 10.5014 146.994 11.0241 147.762 11.7281C149.106 12.9441 150.044 14.2774 150.578 15.7281C151.132 17.1574 151.41 18.9921 151.41 21.2321C151.41 21.7867 151.335 22.3094 151.186 22.8001C151.036 23.2694 150.812 23.8454 150.514 24.5281L150.098 25.5521C149.799 26.3627 149.18 27.1201 148.242 27.8241C147.303 28.5067 146.247 29.0507 145.074 29.4561C143.9 29.8614 142.834 30.0641 141.874 30.0641C139.911 30.0641 138.194 29.7441 136.722 29.1041C135.271 28.4427 134.066 27.4081 133.106 26.0001C132.615 25.2534 132.231 24.4214 131.954 23.5041C131.676 22.5654 131.538 21.6694 131.538 20.8161C131.538 18.6401 131.922 16.7521 132.69 15.1521C133.479 13.5307 134.567 12.2721 135.954 11.3761C136.743 10.9067 137.682 10.5014 138.77 10.1601C139.879 9.81873 140.818 9.64806 141.586 9.64806ZM134.93 20.8161C134.93 21.9254 135.196 22.9601 135.73 23.9201C136.284 24.8587 137.02 25.6054 137.938 26.1601C138.876 26.7147 139.9 26.9921 141.01 26.9921C143.292 26.9921 145.031 26.4161 146.226 25.2641C147.442 24.1121 148.05 22.4907 148.05 20.4001C148.05 18.7787 147.868 17.4987 147.506 16.5601C147.143 15.6214 146.492 14.7787 145.554 14.0321C145.042 13.6054 144.487 13.3067 143.89 13.1361C143.314 12.9441 142.631 12.8481 141.842 12.8481C140.476 12.8481 139.271 13.1894 138.226 13.8721C137.18 14.5547 136.37 15.5041 135.794 16.7201C135.218 17.9361 134.93 19.3014 134.93 20.8161Z" fill="#37251B"/>
<path d="M9.09375 100C7.9375 100 7.09375 99.7344 6.5625 99.2032C6.03125 98.6719 5.76562 97.8282 5.76562 96.6719V44.9688C5.76562 43.8126 6.03125 42.9844 6.5625 42.4844C7.09375 41.9532 7.9375 41.6876 9.09375 41.6876H27.75C33.4688 41.6876 38.3125 42.8126 42.2812 45.0626C46.2812 47.2813 49.2969 50.5626 51.3281 54.9063C53.3906 59.2501 54.4219 64.5469 54.4219 70.7969C54.4219 77.0782 53.3906 82.3907 51.3281 86.7344C49.2969 91.0782 46.2812 94.3751 42.2812 96.6251C38.3125 98.8751 33.4688 100 27.75 100H9.09375ZM27.75 89.0782C32.1875 89.0782 35.5469 87.5313 37.8281 84.4376C40.1094 81.3126 41.25 76.7657 41.25 70.7969C41.25 64.8594 40.1094 60.3438 37.8281 57.2501C35.5469 54.1251 32.1875 52.5626 27.75 52.5626H18.7031V89.0782H27.75ZM68.7188 100.141C65.375 100.141 63.7031 99.2657 63.7031 97.5157V44.9688C63.7031 43.8126 63.9688 42.9844 64.5 42.4844C65.0312 41.9532 65.875 41.6876 67.0312 41.6876H83.2969C97.1094 41.6876 104.016 46.8907 104.016 57.2969C104.016 60.4532 103.125 63.1719 101.344 65.4532C99.5938 67.7344 97.2344 69.4376 94.2656 70.5626V70.8907C95.2969 71.3282 96.375 72.2657 97.5 73.7032C98.6562 75.1407 99.5781 76.7657 100.266 78.5782L107.625 96.9063C107.875 97.6563 108 98.1876 108 98.5001C108 99.5938 106.344 100.141 103.031 100.141H99.6094C96.8281 100.141 95.2188 99.5626 94.7812 98.4063L88.1719 82.1407C87.5469 80.8907 86.9375 79.9219 86.3438 79.2344C85.7812 78.5469 84.9844 78.0313 83.9531 77.6876C82.9219 77.3126 81.5312 77.1251 79.7812 77.1251H76.5469V97.5157C76.5469 99.2657 74.875 100.141 71.5312 100.141H68.7188ZM84.4219 66.0626C85.5469 66.0626 86.6094 65.7501 87.6094 65.1251C88.6094 64.4688 89.4062 63.5938 90 62.5001C90.5938 61.4063 90.8906 60.2032 90.8906 58.8907C90.8906 56.9532 90.25 55.4219 88.9688 54.2969C87.7188 53.1407 86.0156 52.5626 83.8594 52.5626H76.5469V66.0626H84.4219ZM119.109 100.234C117.422 100.234 116.156 100 115.312 99.5313C114.5 99.0626 114.094 98.3907 114.094 97.5157V44.1719C114.094 42.3282 115.766 41.4063 119.109 41.4063H122.016C123.734 41.4063 124.984 41.6407 125.766 42.1094C126.578 42.5782 126.984 43.2657 126.984 44.1719V97.5157C126.984 99.3282 125.328 100.234 122.016 100.234H119.109ZM143.156 100.141C139.812 100.141 138.141 99.2657 138.141 97.5157V44.1719C138.141 43.2657 138.547 42.5938 139.359 42.1563C140.172 41.6876 141.438 41.4532 143.156 41.4532H146.719C148.062 41.4532 149.172 41.6094 150.047 41.9219C150.922 42.2344 151.641 42.8438 152.203 43.7501L171.891 74.0782L174.141 77.4532V44.1719C174.141 43.2657 174.547 42.5938 175.359 42.1563C176.172 41.6876 177.438 41.4532 179.156 41.4532H181.547C183.266 41.4532 184.516 41.6876 185.297 42.1563C186.109 42.5938 186.516 43.2657 186.516 44.1719V97.5157C186.516 99.2657 184.859 100.141 181.547 100.141H178.359C176.984 100.141 175.875 100 175.031 99.7188C174.188 99.4063 173.484 98.8126 172.922 97.9376L152.297 66.3907L150.516 63.7657V97.5157C150.516 99.2657 148.859 100.141 145.547 100.141H143.156ZM203.062 100.141C199.719 100.141 198.047 99.2657 198.047 97.5157V44.1719C198.047 43.2657 198.453 42.5938 199.266 42.1563C200.078 41.6876 201.344 41.4532 203.062 41.4532H205.969C207.688 41.4532 208.953 41.6876 209.766 42.1563C210.578 42.5938 210.984 43.2657 210.984 44.1719V66.4844L211.312 66.5782L225.797 43.0469C226.422 41.9844 228.078 41.4532 230.766 41.4532H234.703C236.234 41.4532 237.391 41.5782 238.172 41.8282C238.984 42.0469 239.391 42.3438 239.391 42.7188C239.391 43.2188 239.156 43.8126 238.688 44.5001L222.609 69.1563L240.891 97.1407C241.328 97.8282 241.547 98.4063 241.547 98.8751C241.547 99.7188 240 100.141 236.906 100.141H232.031C230.688 100.141 229.594 100.031 228.75 99.8126C227.906 99.5938 227.312 99.1719 226.969 98.5469L211.312 73.2344L210.984 73.2813V97.5157C210.984 99.2657 209.312 100.141 205.969 100.141H203.062ZM291.516 100.703C282.141 100.703 275.219 98.2657 270.75 93.3907C266.312 88.5157 264.094 80.9376 264.094 70.6563C264.094 50.8751 273.375 40.9844 291.938 40.9844C294.469 40.9844 297.094 41.2344 299.812 41.7344C302.531 42.2344 304.797 42.9376 306.609 43.8438C308.453 44.7188 309.375 45.7032 309.375 46.7969C309.375 47.5782 309.062 48.6094 308.438 49.8907C307.812 51.1407 307.062 52.2501 306.188 53.2188C305.344 54.1876 304.594 54.6719 303.938 54.6719C303.781 54.6719 303.359 54.5157 302.672 54.2032C301.172 53.5782 299.594 53.0626 297.938 52.6563C296.312 52.2188 294.234 52.0001 291.703 52.0001C286.797 52.0001 283.156 53.5626 280.781 56.6876C278.438 59.7813 277.266 64.4688 277.266 70.7501C277.266 77.0313 278.453 81.7657 280.828 84.9532C283.203 88.1407 286.766 89.7344 291.516 89.7344C293.984 89.7344 296.125 89.4844 297.938 88.9844C299.781 88.4844 301.578 87.8438 303.328 87.0626C303.422 87.0313 303.703 86.9219 304.172 86.7344C304.641 86.5157 304.984 86.4063 305.203 86.4063C306.016 86.4063 306.797 86.8907 307.547 87.8594C308.297 88.7969 308.906 89.8751 309.375 91.0938C309.844 92.2813 310.078 93.1407 310.078 93.6719C310.078 95.2032 309.047 96.5001 306.984 97.5626C304.953 98.6251 302.484 99.4219 299.578 99.9532C296.703 100.453 294.016 100.703 291.516 100.703ZM342.469 100.703C336.781 100.703 331.938 99.5469 327.938 97.2344C323.969 94.9219 320.938 91.5469 318.844 87.1094C316.781 82.6407 315.75 77.2032 315.75 70.7969C315.75 64.4219 316.781 59.0157 318.844 54.5782C320.938 50.1094 323.969 46.7344 327.938 44.4532C331.938 42.1407 336.781 40.9844 342.469 40.9844C348.188 40.9844 353.031 42.1407 357 44.4532C361 46.7344 364.031 50.1094 366.094 54.5782C368.156 59.0157 369.188 64.4219 369.188 70.7969C369.188 77.2032 368.156 82.6407 366.094 87.1094C364.031 91.5469 361 94.9219 357 97.2344C353.031 99.5469 348.188 100.703 342.469 100.703ZM342.469 89.7344C346.938 89.7344 350.312 88.1251 352.594 84.9063C354.875 81.6563 356.016 76.9532 356.016 70.7969C356.016 64.6407 354.875 59.9688 352.594 56.7813C350.312 53.5938 346.938 52.0001 342.469 52.0001C338.031 52.0001 334.656 53.6094 332.344 56.8282C330.062 60.0157 328.922 64.6719 328.922 70.7969C328.922 76.9532 330.078 81.6563 332.391 84.9063C334.703 88.1251 338.062 89.7344 342.469 89.7344ZM383.719 100.141C380.375 100.141 378.703 99.2657 378.703 97.5157V44.9688C378.703 43.8126 378.969 42.9844 379.5 42.4844C380.031 41.9532 380.875 41.6876 382.031 41.6876H409.875C410.75 41.6876 411.375 42.0157 411.75 42.6719C412.156 43.3282 412.359 44.3907 412.359 45.8594V48.3907C412.359 49.8594 412.156 50.9219 411.75 51.5782C411.375 52.2344 410.75 52.5626 409.875 52.5626H391.547V64.7501H409.266C410.141 64.7501 410.781 65.0782 411.188 65.7344C411.594 66.3907 411.797 67.4376 411.797 68.8751V71.4532C411.797 72.9219 411.594 74.0001 411.188 74.6876C410.781 75.3438 410.141 75.6719 409.266 75.6719H391.547V97.5157C391.547 99.2657 389.875 100.141 386.531 100.141H383.719ZM425.625 100.141C422.281 100.141 420.609 99.2657 420.609 97.5157V44.9688C420.609 43.8126 420.875 42.9844 421.406 42.4844C421.938 41.9532 422.781 41.6876 423.938 41.6876H451.781C452.656 41.6876 453.281 42.0157 453.656 42.6719C454.062 43.3282 454.266 44.3907 454.266 45.8594V48.3907C454.266 49.8594 454.062 50.9219 453.656 51.5782C453.281 52.2344 452.656 52.5626 451.781 52.5626H433.453V64.7501H451.172C452.047 64.7501 452.688 65.0782 453.094 65.7344C453.5 66.3907 453.703 67.4376 453.703 68.8751V71.4532C453.703 72.9219 453.5 74.0001 453.094 74.6876C452.688 75.3438 452.047 75.6719 451.172 75.6719H433.453V97.5157C433.453 99.2657 431.781 100.141 428.438 100.141H425.625ZM465.844 100C464.688 100 463.844 99.7344 463.312 99.2032C462.781 98.6719 462.516 97.8282 462.516 96.6719V44.9688C462.516 43.8126 462.781 42.9844 463.312 42.4844C463.844 41.9532 464.688 41.6876 465.844 41.6876H496.359C497.234 41.6876 497.859 42.0157 498.234 42.6719C498.641 43.3282 498.844 44.3907 498.844 45.8594V48.3907C498.844 49.8594 498.641 50.9219 498.234 51.5782C497.859 52.2344 497.234 52.5626 496.359 52.5626H475.359V64.6563H494.109C494.984 64.6563 495.609 64.9844 495.984 65.6407C496.391 66.2969 496.594 67.3594 496.594 68.8282V71.4063C496.594 72.8751 496.391 73.9376 495.984 74.5938C495.609 75.2501 494.984 75.5782 494.109 75.5782H475.359V89.0782H496.406C497.281 89.0782 497.906 89.4063 498.281 90.0626C498.688 90.7188 498.891 91.7657 498.891 93.2032V95.8282C498.891 97.2969 498.688 98.3594 498.281 99.0157C497.906 99.6719 497.281 100 496.406 100H465.844ZM511.406 100C510.25 100 509.406 99.7344 508.875 99.2032C508.344 98.6719 508.078 97.8282 508.078 96.6719V44.9688C508.078 43.8126 508.344 42.9844 508.875 42.4844C509.406 41.9532 510.25 41.6876 511.406 41.6876H541.922C542.797 41.6876 543.422 42.0157 543.797 42.6719C544.203 43.3282 544.406 44.3907 544.406 45.8594V48.3907C544.406 49.8594 544.203 50.9219 543.797 51.5782C543.422 52.2344 542.797 52.5626 541.922 52.5626H520.922V64.6563H539.672C540.547 64.6563 541.172 64.9844 541.547 65.6407C541.953 66.2969 542.156 67.3594 542.156 68.8282V71.4063C542.156 72.8751 541.953 73.9376 541.547 74.5938C541.172 75.2501 540.547 75.5782 539.672 75.5782H520.922V89.0782H541.969C542.844 89.0782 543.469 89.4063 543.844 90.0626C544.25 90.7188 544.453 91.7657 544.453 93.2032V95.8282C544.453 97.2969 544.25 98.3594 543.844 99.0157C543.469 99.6719 542.844 100 541.969 100H511.406Z" fill="#37251B"/>
<path d="M502.72 106.56C505.147 106.56 507.2 106.973 508.88 107.8C510.56 108.6 511.84 109.747 512.72 111.24C513.6 112.707 514.04 114.453 514.04 116.48C514.04 117.68 513.853 118.893 513.48 120.12C513.133 121.32 512.56 122.413 511.76 123.4C510.987 124.387 509.933 125.187 508.6 125.8C507.293 126.387 505.68 126.68 503.76 126.68H499.6V136H493.8V106.56H502.72ZM503.72 121.04C504.6 121.04 505.333 120.893 505.92 120.6C506.507 120.28 506.96 119.893 507.28 119.44C507.627 118.96 507.867 118.467 508 117.96C508.16 117.453 508.24 117.013 508.24 116.64C508.24 116.347 508.187 115.96 508.08 115.48C508 114.973 507.813 114.467 507.52 113.96C507.227 113.453 506.773 113.027 506.16 112.68C505.573 112.333 504.773 112.16 503.76 112.16H499.6V121.04H503.72ZM543.99 106.56V136H538.19V124.04H525.03V136H519.23V106.56H525.03V118.44H538.19V106.56H543.99Z" fill="#37251B"/>
<path d="M575.422 92.3712C572.668 92.3712 570.705 92.0196 569.533 91.3165C568.361 90.6133 567.775 89.4122 567.775 87.713C567.775 83.6114 568.713 79.7149 570.588 76.0235C572.463 72.3321 575.041 68.5235 578.322 64.5977C581.604 60.9063 583.127 59.2071 582.893 59.5001C586.057 56.043 588.342 53.3184 589.748 51.3262C591.213 49.334 591.945 47.459 591.945 45.7012C591.945 42.9473 590.979 40.8087 589.045 39.2852C587.17 37.7618 584.27 37.0001 580.344 37.0001C577.707 37.0001 575.305 37.3223 573.137 37.9669C571.027 38.6114 568.742 39.4903 566.281 40.6036C564.523 41.4239 563.381 41.834 562.854 41.834C561.506 41.834 560.07 41.043 558.547 39.461C557.023 37.8204 555.734 35.9747 554.68 33.9239C553.625 31.8145 553.098 30.2032 553.098 29.0899C553.098 26.1602 554.592 23.7579 557.58 21.8829C560.627 19.9493 564.406 18.543 568.918 17.6641C573.43 16.7852 577.912 16.3458 582.365 16.3458C589.338 16.3458 595.373 17.4883 600.471 19.7735C605.568 22.0001 609.465 25.2227 612.16 29.4415C614.914 33.6016 616.291 38.5235 616.291 44.2071C616.291 48.4844 615.5 52.293 613.918 55.6329C612.395 58.9727 610.52 61.8145 608.293 64.1583C606.066 66.4434 603.166 69.1387 599.592 72.2442C595.783 75.4669 592.912 78.2208 590.979 80.5059C589.045 82.7325 587.814 85.252 587.287 88.0645C586.76 89.7051 585.881 90.8477 584.65 91.4922C583.479 92.0782 581.604 92.3712 579.025 92.3712H575.422ZM574.543 127.264C568.332 127.264 565.227 125.623 565.227 122.342V107.928C565.227 104.588 568.332 102.918 574.543 102.918H579.641C585.852 102.918 588.957 104.588 588.957 107.928V122.342C588.957 125.623 585.852 127.264 579.641 127.264H574.543Z" fill="#37251B"/>
<path d="M588 109C589 109 591.2 109.3 592 110.5C593 112 593 119 592.5 120.5C592.1 121.7 589.333 122 588 122" stroke="#37251B" stroke-width="3"/>
</g>
<defs>
<clipPath id="clip0_6_3">
<rect width="146" height="621" fill="white" transform="translate(0 146) rotate(-90)"/>
</clipPath>
</defs>
</svg>
